<?xml version="1.0" encoding="utf-8"?><!DOCTYPE svg PUBLIC "-//W3C//DTD SVG 1.1//EN" "http://www.w3.org/Graphics/SVG/1.1/DTD/svg11.dtd">
<svg version="1.1" xmlns="http://www.w3.org/2000/svg" xmlns:xlink="http://www.w3.org/1999/xlink" fill="#fff" width="107" height="40" viewBox="0 0 107 40">
  <g transform="translate(0, 2)">
    <path d="M68,26.8V8h-4v20h4V26.8L68,26.8z M40,26.8V8h-4v20h4V26.8L40,26.8z M52,7.5c-2,0-2.9,1-4,2.3V8l-4,0v20l4,0V16.3c0-3.2,1.5-5.1,4.1-5.1c2.8,0,4,1.7,4,5.5V28h4V16.6c0-5.9-1.6-9.1-7-9.1H52z M74,11l0,12.2c0,3.6,1.7,5.7,5,5.7c1.1,0,2.2-0.1,3-0.4l0-3.5c-0.3,0.1-0.9,0.3-1.7,0.3c-1.8,0-2.3-0.7-2.3-2.5L78,11h5L82,7.9c0,0-0.8,0-1,0h-2.8l0-7.9l-4,2.9l0,5.1l-3-0.1l-0.1,3.1l2.7,0L74,11z M23.9,8h-2.1l-2.8,3l5-0.1L24,28h4l0.1-17l4.9,0l0-3l-5,0L28,6c0-1.5,1-2.3,1.5-2.3c0.8,0,1.8-0.1,3.5,0.3l0-3.2c-0.5-0.2-1.9-0.4-1.9-0.4s-0.4,0-0.5-0.1c-0.3,0-0.7-0.1-1.1-0.1c-3.3,0-5.5,1.9-5.5,5.6v1.9L23.9,8z M106,8L101,7.9L94,21.1l-5-13.2L84,8l7.1,17.5L86,35l5,0L106,8L106,8z M19.1,8l-5,0l-4.5,6.1L5.9,8L1,8.1l6,9.5L0,28l5,0l4.5-7l9.5,14l5,0l-12-17.4L19.1,8z"></path>
    <path d="M101,26L101,26c0-1.6,1.3-3,3-3c1.7,0,3,1.3,3,3v0c0,1.6-1.3,3-3,3C102.3,29,101,27.6,101,26L101,26z M106.7,26L106.7,26c0-1.5-1.1-2.7-2.7-2.7c-1.5,0-2.7,1.2-2.7,2.7v0c0,1.5,1.1,2.7,2.7,2.7C105.5,28.7,106.7,27.5,106.7,26L106.7,26z M102.8,24.3h1.4c0.4,0,0.7,0.1,1,0.3c0.2,0.2,0.3,0.4,0.3,0.7v0c0,0.5-0.3,0.8-0.7,0.9l0.8,1.2h-0.7l-0.8-1.1h-0.7v1.1h-0.6V24.3L102.8,24.3z M104.2,25.9c0.4,0,0.6-0.2,0.6-0.5v0c0-0.3-0.2-0.5-0.6-0.5h-0.8v1H104.2L104.2,25.9z"></path>
  </g>
</svg>
